<svg width="48" height="48" viewBox="0 0 48 48" fill="none" xmlns="http://www.w3.org/2000/svg">
<g clip-path="url(#clip0_65_318)">
<path d="M40 0H8C3.58172 0 0 3.58172 0 8V40C0 44.4183 3.58172 48 8 48H40C44.4183 48 48 44.4183 48 40V8C48 3.58172 44.4183 0 40 0Z" fill="#1B1C23"/>
<path d="M40 0H8C3.58172 0 0 3.58172 0 8V40C0 44.4183 3.58172 48 8 48H40C44.4183 48 48 44.4183 48 40V8C48 3.58172 44.4183 0 40 0Z" fill="#232530" fill-opacity="0.45"/>
<path d="M22.5267 27.8639C22.4094 27.8639 22.3067 27.8272 22.2187 27.7539C22.1307 27.6659 22.0867 27.5559 22.0867 27.4239C22.0867 27.3066 22.0867 27.1892 22.0867 27.0719C22.0867 26.9546 22.0867 26.8372 22.0867 26.7199C22.1454 26.1479 22.2994 25.6419 22.5487 25.2019C22.8127 24.7472 23.1134 24.3366 23.4507 23.9699C23.8027 23.5886 24.1474 23.2292 24.4847 22.8919C24.8367 22.5546 25.13 22.2246 25.3647 21.9019C25.614 21.5646 25.7607 21.2199 25.8047 20.8679C25.8487 20.4426 25.7607 20.0832 25.5407 19.7899C25.3354 19.4966 25.0494 19.2766 24.6827 19.1299C24.3307 18.9686 23.9567 18.8879 23.5607 18.8879C22.8714 18.8879 22.3067 19.0566 21.8667 19.3939C21.4267 19.7312 21.126 20.2739 20.9647 21.0219C20.9207 21.1979 20.8474 21.3299 20.7447 21.4179C20.642 21.4912 20.5027 21.5279 20.3267 21.5279H18.4567C18.3247 21.5279 18.2074 21.4839 18.1047 21.3959C18.0167 21.2932 17.9727 21.1612 17.9727 20.9999C17.9874 20.4132 18.1194 19.8486 18.3687 19.3059C18.6327 18.7486 19.0067 18.2499 19.4907 17.8099C19.9894 17.3699 20.5907 17.0252 21.2947 16.7759C21.9987 16.5119 22.8054 16.3799 23.7147 16.3799C24.712 16.3799 25.548 16.5119 26.2227 16.7759C26.912 17.0252 27.4547 17.3552 27.8507 17.7659C28.2614 18.1766 28.5547 18.6239 28.7307 19.1079C28.9067 19.5772 28.9874 20.0392 28.9727 20.4939C28.9434 21.0512 28.8187 21.5499 28.5987 21.9899C28.3787 22.4299 28.1074 22.8406 27.7847 23.2219C27.462 23.5886 27.132 23.9552 26.7947 24.3219C26.4574 24.6739 26.1567 25.0332 25.8927 25.3999C25.6434 25.7666 25.4747 26.1552 25.3867 26.5659C25.3574 26.6979 25.3354 26.8299 25.3207 26.9619C25.306 27.0792 25.2914 27.1966 25.2767 27.3139C25.218 27.4899 25.1447 27.6292 25.0567 27.7319C24.9687 27.8199 24.844 27.8639 24.6827 27.8639H22.5267ZM22.4607 31.9999C22.314 31.9999 22.1894 31.9486 22.0867 31.8459C21.984 31.7432 21.9327 31.6186 21.9327 31.4719V29.5579C21.9327 29.3966 21.984 29.2646 22.0867 29.1619C22.1894 29.0592 22.314 29.0079 22.4607 29.0079H24.5947C24.756 29.0079 24.888 29.0592 24.9907 29.1619C25.0934 29.2646 25.1447 29.3966 25.1447 29.5579V31.4719C25.1447 31.6186 25.0934 31.7432 24.9907 31.8459C24.888 31.9486 24.756 31.9999 24.5947 31.9999H22.4607Z" fill="#5B5B6E"/>
</g>
<defs>
<clipPath id="clip0_65_318">
<rect width="48" height="48" fill="white"/>
</clipPath>
</defs>
</svg>
